<svg width="162" height="50" viewBox="0 0 162 50" fill="none" xmlns="http://www.w3.org/2000/svg">
<path d="M3.82667 49.26C2.50934 49.26 1.57334 48.5667 1.01867 47.18C0.498672 45.7933 0.238672 43.5747 0.238672 40.524C0.238672 36.0173 0.880005 31.736 2.16267 27.68C2.47467 26.6747 2.97734 25.9467 3.67067 25.496C4.39867 25.0107 5.40401 24.768 6.68667 24.768C7.38001 24.768 7.86534 24.8547 8.14267 25.028C8.42001 25.2013 8.55867 25.5307 8.55867 26.016C8.55867 26.5707 8.29867 27.8187 7.77867 29.76C7.43201 31.1467 7.15467 32.36 6.94667 33.4C6.73867 34.4053 6.56534 35.6707 6.42667 37.196C7.36267 34.492 8.47201 32.204 9.75467 30.332C11.072 28.46 12.4067 27.0733 13.7587 26.172C15.1453 25.236 16.4453 24.768 17.6587 24.768C18.872 24.768 19.7213 25.0453 20.2067 25.6C20.7267 26.1547 20.9867 27.004 20.9867 28.148C20.9867 29.2573 20.6573 31.268 19.9987 34.18C19.7213 35.428 19.5307 36.364 19.4267 36.988C21.16 32.724 23.084 29.6213 25.1987 27.68C27.3133 25.7387 29.2893 24.768 31.1267 24.768C33.38 24.768 34.5067 25.8947 34.5067 28.148C34.5067 29.5 34.1253 31.944 33.3627 35.48C32.704 38.496 32.3747 40.4893 32.3747 41.46C32.3747 42.8467 32.8773 43.54 33.8827 43.54C34.576 43.54 35.3907 43.124 36.3267 42.292C37.2973 41.4253 38.58 40.0387 40.1747 38.132C40.5907 37.6467 41.0587 37.404 41.5787 37.404C42.0293 37.404 42.376 37.612 42.6187 38.028C42.896 38.444 43.0347 39.016 43.0347 39.744C43.0347 41.1307 42.7053 42.2053 42.0467 42.968C40.556 44.8053 38.944 46.3133 37.2107 47.492C35.512 48.6707 33.5707 49.26 31.3867 49.26C29.6187 49.26 28.284 48.7573 27.3827 47.752C26.4813 46.712 26.0307 45.2213 26.0307 43.28C26.0307 42.3093 26.2733 40.576 26.7587 38.08C27.2093 35.896 27.4347 34.388 27.4347 33.556C27.4347 33.0013 27.244 32.724 26.8627 32.724C26.412 32.724 25.7707 33.3133 24.9387 34.492C24.1067 35.636 23.2747 37.1613 22.4427 39.068C21.6107 40.9747 20.9347 42.9853 20.4147 45.1C20.0333 46.764 19.5827 47.8733 19.0627 48.428C18.5773 48.9827 17.78 49.26 16.6707 49.26C15.5267 49.26 14.66 48.7227 14.0707 47.648C13.516 46.5387 13.2387 45.204 13.2387 43.644C13.2387 42.3267 13.412 40.42 13.7587 37.924C14.036 35.7053 14.1747 34.2493 14.1747 33.556C14.1747 33.0013 13.984 32.724 13.6027 32.724C13.0827 32.724 12.424 33.348 11.6267 34.596C10.8293 35.844 10.0493 37.4387 9.28667 39.38C8.55867 41.3213 7.96934 43.228 7.51867 45.1C7.13734 46.7293 6.68667 47.8387 6.16667 48.428C5.68134 48.9827 4.90134 49.26 3.82667 49.26ZM45.642 21.336C44.186 21.336 43.094 21.0067 42.366 20.348C41.638 19.6547 41.274 18.7013 41.274 17.488C41.274 16.2747 41.742 15.2693 42.678 14.472C43.6487 13.64 44.8447 13.224 46.266 13.224C47.5487 13.224 48.5887 13.536 49.386 14.16C50.1833 14.784 50.582 15.668 50.582 16.812C50.582 18.1987 50.1313 19.308 49.23 20.14C48.3287 20.9373 47.1327 21.336 45.642 21.336ZM45.226 49.26C42.9727 49.26 41.326 48.4627 40.286 46.868C39.2807 45.2733 38.778 43.1587 38.778 40.524C38.778 38.964 38.9687 36.9707 39.35 34.544C39.766 32.0827 40.286 29.7947 40.91 27.68C41.222 26.5707 41.638 25.808 42.158 25.392C42.678 24.976 43.51 24.768 44.654 24.768C46.422 24.768 47.306 25.3573 47.306 26.536C47.306 27.4027 46.9767 29.4133 46.318 32.568C45.486 36.3813 45.07 38.964 45.07 40.316C45.07 41.356 45.2087 42.1533 45.486 42.708C45.7633 43.2627 46.2313 43.54 46.89 43.54C47.514 43.54 48.294 43.1067 49.23 42.24C50.166 41.3733 51.414 40.004 52.974 38.132C53.39 37.6467 53.858 37.404 54.378 37.404C54.8287 37.404 55.1753 37.612 55.418 38.028C55.6953 38.444 55.834 39.016 55.834 39.744C55.834 41.1307 55.5047 42.2053 54.846 42.968C51.414 47.1627 48.2073 49.26 45.226 49.26ZM61.5589 49.26C58.1615 49.26 55.5095 48.3067 53.6029 46.4C51.7309 44.4587 50.7949 41.9107 50.7949 38.756C50.7949 35.948 51.3495 33.4867 52.4589 31.372C53.5682 29.2573 55.0069 27.628 56.7749 26.484C58.5429 25.34 60.3975 24.768 62.3389 24.768C64.2455 24.768 65.7189 25.34 66.7589 26.484C67.8335 27.5933 68.3709 29.032 68.3709 30.8C68.3709 32.256 68.0415 33.4867 67.3829 34.492C66.7589 35.4973 65.9269 36 64.8869 36C64.2282 36 63.6909 35.844 63.2749 35.532C62.8935 35.22 62.7029 34.7867 62.7029 34.232C62.7029 33.9893 62.7375 33.712 62.8069 33.4C62.8762 33.088 62.9282 32.8627 62.9629 32.724C63.1362 32.204 63.2229 31.7187 63.2229 31.268C63.2229 30.8173 63.1015 30.4707 62.8589 30.228C62.6509 29.9853 62.3389 29.864 61.9229 29.864C61.1255 29.864 60.3802 30.228 59.6869 30.956C58.9935 31.6493 58.4389 32.6027 58.0229 33.816C57.6069 35.0293 57.3989 36.364 57.3989 37.82C57.3989 41.8413 59.1495 43.852 62.6509 43.852C64.0722 43.852 65.5975 43.384 67.2269 42.448C68.8909 41.4773 70.5202 40.0387 72.1149 38.132C72.5309 37.6467 72.9989 37.404 73.5189 37.404C73.9695 37.404 74.3162 37.612 74.5589 38.028C74.8362 38.444 74.9749 39.016 74.9749 39.744C74.9749 41.0613 74.6455 42.136 73.9869 42.968C72.3575 44.9787 70.3989 46.5387 68.1109 47.648C65.8575 48.7227 63.6735 49.26 61.5589 49.26ZM99.6314 37.404C100.082 37.404 100.429 37.612 100.671 38.028C100.949 38.444 101.087 39.016 101.087 39.744C101.087 41.1307 100.758 42.2053 100.099 42.968C98.5047 44.8053 96.8581 46.3133 95.1594 47.492C93.4954 48.6707 91.5887 49.26 89.4394 49.26C87.6714 49.26 86.3367 48.7573 85.4354 47.752C84.5341 46.712 84.0834 45.2213 84.0834 43.28C84.0834 42.3093 84.3261 40.576 84.8114 38.08C85.2621 35.896 85.4874 34.388 85.4874 33.556C85.4874 33.0013 85.2967 32.724 84.9154 32.724C84.4647 32.724 83.8234 33.3133 82.9914 34.492C82.1594 35.636 81.3274 37.1613 80.4954 39.068C79.6634 40.9747 78.9874 42.9853 78.4674 45.1C77.8087 47.8733 76.1794 49.26 73.5794 49.26C72.5394 49.26 71.8461 48.896 71.4994 48.168C71.1874 47.4053 71.0314 46.0533 71.0314 44.112C71.0314 43.0027 71.0487 42.1187 71.0834 41.46L71.1354 37.3C71.1354 31.9613 71.6727 26.3973 72.7474 20.608C73.8567 14.8187 75.4687 9.96533 77.5834 6.048C79.7327 2.096 82.2981 0.119997 85.2794 0.119997C86.8741 0.119997 88.1567 0.813331 89.1274 2.2C90.1327 3.552 90.6354 5.32 90.6354 7.504C90.6354 11.0053 89.6127 14.6453 87.5674 18.424C85.5221 22.168 82.1941 26.5533 77.5834 31.58C77.4794 33.3827 77.4274 35.2373 77.4274 37.144C78.5714 34.1973 79.8367 31.8053 81.2234 29.968C82.6447 28.096 84.0314 26.7613 85.3834 25.964C86.7701 25.1667 88.0354 24.768 89.1794 24.768C91.4327 24.768 92.5594 25.8947 92.5594 28.148C92.5594 29.5 92.1781 31.944 91.4154 35.48C90.7567 38.496 90.4274 40.4893 90.4274 41.46C90.4274 42.8467 90.9301 43.54 91.9354 43.54C92.6287 43.54 93.4434 43.124 94.3794 42.292C95.3501 41.4253 96.6327 40.0387 98.2274 38.132C98.6434 37.6467 99.1114 37.404 99.6314 37.404ZM84.1874 5.268C83.5634 5.268 82.8701 6.16933 82.1074 7.972C81.3447 9.74 80.5994 12.1493 79.8714 15.2C79.1781 18.216 78.6061 21.5093 78.1554 25.08C80.3047 22.5493 82.0727 19.7933 83.4594 16.812C84.8807 13.8307 85.5914 11.1267 85.5914 8.7C85.5914 7.59066 85.4701 6.74133 85.2274 6.152C84.9847 5.56266 84.6381 5.268 84.1874 5.268ZM103.269 49.26C101.12 49.26 99.4036 48.48 98.121 46.92C96.8383 45.36 96.197 43.3147 96.197 40.784C96.197 38.0107 96.8383 35.3933 98.121 32.932C99.4036 30.436 101.102 28.4427 103.217 26.952C105.366 25.4267 107.637 24.664 110.029 24.664C110.792 24.664 111.294 24.82 111.537 25.132C111.814 25.4093 112.04 25.9293 112.213 26.692C112.941 26.5533 113.704 26.484 114.501 26.484C116.2 26.484 117.049 27.0907 117.049 28.304C117.049 29.032 116.789 30.7653 116.269 33.504C115.472 37.4907 115.073 40.264 115.073 41.824C115.073 42.344 115.194 42.76 115.437 43.072C115.714 43.384 116.061 43.54 116.477 43.54C117.136 43.54 117.933 43.124 118.869 42.292C119.805 41.4253 121.07 40.0387 122.665 38.132C123.081 37.6467 123.549 37.404 124.069 37.404C124.52 37.404 124.866 37.612 125.109 38.028C125.386 38.444 125.525 39.016 125.525 39.744C125.525 41.1307 125.196 42.2053 124.537 42.968C123.116 44.736 121.608 46.2267 120.013 47.44C118.418 48.6533 116.876 49.26 115.385 49.26C114.241 49.26 113.184 48.8787 112.213 48.116C111.277 47.3187 110.566 46.244 110.081 44.892C108.278 47.804 106.008 49.26 103.269 49.26ZM105.141 44.008C105.904 44.008 106.632 43.5573 107.325 42.656C108.018 41.7547 108.521 40.5587 108.833 39.068L110.757 29.5C109.301 29.5347 107.949 30.0893 106.701 31.164C105.488 32.204 104.517 33.5907 103.789 35.324C103.061 37.0573 102.697 38.8947 102.697 40.836C102.697 41.9107 102.905 42.708 103.321 43.228C103.772 43.748 104.378 44.008 105.141 44.008ZM144.491 37.404C144.941 37.404 145.288 37.612 145.531 38.028C145.808 38.444 145.947 39.016 145.947 39.744C145.947 41.1307 145.617 42.2053 144.959 42.968C143.676 44.528 141.856 45.9667 139.499 47.284C137.176 48.6013 134.68 49.26 132.011 49.26C128.371 49.26 125.545 48.272 123.535 46.296C121.524 44.32 120.519 41.616 120.519 38.184C120.519 35.792 121.021 33.5733 122.027 31.528C123.032 29.448 124.419 27.8013 126.187 26.588C127.989 25.3747 130.017 24.768 132.271 24.768C134.281 24.768 135.893 25.3747 137.107 26.588C138.32 27.7667 138.927 29.3787 138.927 31.424C138.927 33.816 138.06 35.8787 136.327 37.612C134.628 39.3107 131.733 40.6627 127.643 41.668C128.509 43.2627 130.156 44.06 132.583 44.06C134.143 44.06 135.911 43.5227 137.887 42.448C139.897 41.3387 141.631 39.9 143.087 38.132C143.503 37.6467 143.971 37.404 144.491 37.404ZM131.387 29.864C130.104 29.864 129.012 30.6093 128.111 32.1C127.244 33.5907 126.811 35.3933 126.811 37.508V37.612C128.856 37.1267 130.468 36.3987 131.647 35.428C132.825 34.4573 133.415 33.3307 133.415 32.048C133.415 31.3893 133.224 30.8693 132.843 30.488C132.496 30.072 132.011 29.864 131.387 29.864ZM156.741 41.668C157.122 41.3213 157.503 41.148 157.885 41.148C158.301 41.148 158.63 41.3907 158.873 41.876C159.15 42.3267 159.289 42.8813 159.289 43.54C159.289 44.996 158.769 46.1573 157.729 47.024C155.926 48.5147 153.881 49.26 151.593 49.26C148.299 49.26 145.89 47.8907 144.365 45.152C142.839 42.3787 142.077 38.7733 142.077 34.336C142.077 30.1067 142.614 25.288 143.689 19.88C144.798 14.472 146.41 9.82666 148.525 5.944C150.674 2.06133 153.222 0.119997 156.169 0.119997C157.833 0.119997 159.133 0.899997 160.069 2.46C161.039 3.98533 161.525 6.18667 161.525 9.064C161.525 13.1893 160.381 17.9733 158.093 23.416C155.839 28.8587 152.754 34.232 148.837 39.536C149.079 40.9573 149.513 41.98 150.137 42.604C150.761 43.228 151.61 43.54 152.685 43.54C153.274 43.54 153.933 43.3667 154.661 43.02C155.423 42.6733 156.117 42.2227 156.741 41.668ZM155.025 5.268C154.227 5.268 153.326 6.70667 152.321 9.584C151.315 12.4613 150.431 16.032 149.669 20.296C148.906 24.56 148.49 28.6507 148.421 32.568C150.882 28.512 152.841 24.456 154.297 20.4C155.753 16.3093 156.481 12.5827 156.481 9.22C156.481 6.58533 155.995 5.268 155.025 5.268Z" fill="url(#paint0_linear_2_3)" fill-opacity="0.97"/>
<defs>
<linearGradient id="paint0_linear_2_3" x1="-124.929" y1="55.2012" x2="266.511" y2="43.3511" gradientUnits="userSpaceOnUse">
<stop stop-color="#E00000"/>
</linearGradient>
</defs>
</svg>
